<svg width="960" height="280" viewBox="0 0 960 280" xmlns="http://www.w3.org/2000/svg">
  <rect width="960" height="280" fill="#0E0E10"/>

  <!-- Step 1: Speak -->
  <g stroke="#F5F3EF" stroke-width="3.5" fill="none" stroke-linecap="round" stroke-linejoin="round">
    <rect x="70" y="70" width="90" height="150" rx="16"/>
    <line x1="103" y1="200" x2="127" y2="200"/>
    <line x1="192" y1="130" x2="192" y2="160"/>
    <line x1="207" y1="115" x2="207" y2="175"/>
    <line x1="222" y1="98" x2="222" y2="192"/>
    <line x1="237" y1="120" x2="237" y2="170"/>
  </g>
  <text x="145" y="252" fill="#9A968D" font-family="ui-sans-serif, -apple-system, sans-serif" font-size="15" letter-spacing="2" text-anchor="middle">SPEAK</text>

  <g stroke="#5A5650" stroke-width="3" fill="none" stroke-linecap="round" stroke-linejoin="round">
    <line x1="280" y1="145" x2="345" y2="145"/>
    <polyline points="332,133 345,145 332,157"/>
  </g>

  <!-- Step 2: Agent works -->
  <g stroke="#F5F3EF" stroke-width="3.5" fill="none" stroke-linecap="round" stroke-linejoin="round">
    <rect x="400" y="95" width="150" height="95" rx="6"/>
    <path d="M388 190 h174 l-10 18 h-154 z"/>
  </g>
  <text x="422" y="152" fill="#F5F3EF" font-family="ui-monospace, SFMono-Regular, monospace" font-size="22">&gt;_</text>
  <text x="480" y="252" fill="#9A968D" font-family="ui-sans-serif, -apple-system, sans-serif" font-size="15" letter-spacing="2" text-anchor="middle">AGENT WORKS</text>

  <g stroke="#5A5650" stroke-width="3" fill="none" stroke-linecap="round" stroke-linejoin="round">
    <line x1="620" y1="145" x2="685" y2="145"/>
    <polyline points="672,133 685,145 672,157"/>
  </g>

  <!-- Step 3: Calls you back -->
  <rect x="750" y="70" width="90" height="150" rx="16" stroke="#F5F3EF" stroke-width="3.5" fill="none"/>
  <circle cx="795" cy="148" r="58" stroke="#E8963C" stroke-width="1.5" fill="none" opacity="0.35"/>
  <g fill="#E8963C">
    <rect x="792.9" y="104.0" width="4.2" height="26.0" rx="2.1" transform="rotate(0.0 795 148)"/>
    <rect x="792.9" y="104.0" width="4.2" height="26.0" rx="2.1" transform="rotate(12.9 795 148)"/>
    <rect x="792.9" y="104.0" width="4.2" height="26.0" rx="2.1" transform="rotate(25.7 795 148)"/>
    <rect x="792.9" y="104.0" width="4.2" height="26.0" rx="2.1" transform="rotate(38.6 795 148)"/>
    <rect x="792.9" y="104.0" width="4.2" height="26.0" rx="2.1" transform="rotate(51.4 795 148)"/>
    <rect x="792.9" y="104.0" width="4.2" height="26.0" rx="2.1" transform="rotate(64.3 795 148)"/>
    <rect x="792.9" y="104.0" width="4.2" height="26.0" rx="2.1" transform="rotate(77.1 795 148)"/>
    <rect x="792.9" y="104.0" width="4.2" height="26.0" rx="2.1" transform="rotate(90.0 795 148)"/>
    <rect x="792.9" y="104.0" width="4.2" height="26.0" rx="2.1" transform="rotate(102.9 795 148)"/>
    <rect x="792.9" y="104.0" width="4.2" height="26.0" rx="2.1" transform="rotate(115.7 795 148)"/>
    <rect x="792.9" y="104.0" width="4.2" height="26.0" rx="2.1" transform="rotate(128.6 795 148)"/>
    <rect x="792.9" y="104.0" width="4.2" height="26.0" rx="2.1" transform="rotate(141.4 795 148)"/>
    <rect x="792.9" y="104.0" width="4.2" height="26.0" rx="2.1" transform="rotate(154.3 795 148)"/>
    <rect x="792.9" y="104.0" width="4.2" height="26.0" rx="2.1" transform="rotate(167.1 795 148)"/>
    <rect x="792.9" y="104.0" width="4.2" height="26.0" rx="2.1" transform="rotate(180.0 795 148)"/>
    <rect x="792.9" y="104.0" width="4.2" height="26.0" rx="2.1" transform="rotate(192.9 795 148)"/>
    <rect x="792.9" y="104.0" width="4.2" height="26.0" rx="2.1" transform="rotate(205.7 795 148)"/>
    <rect x="792.9" y="104.0" width="4.2" height="26.0" rx="2.1" transform="rotate(218.6 795 148)"/>
    <rect x="792.9" y="104.0" width="4.2" height="26.0" rx="2.1" transform="rotate(231.4 795 148)"/>
    <rect x="792.9" y="104.0" width="4.2" height="26.0" rx="2.1" transform="rotate(244.3 795 148)"/>
    <rect x="792.9" y="104.0" width="4.2" height="26.0" rx="2.1" transform="rotate(257.1 795 148)"/>
    <rect x="792.9" y="104.0" width="4.2" height="26.0" rx="2.1" transform="rotate(270.0 795 148)"/>
    <rect x="792.9" y="104.0" width="4.2" height="26.0" rx="2.1" transform="rotate(282.9 795 148)"/>
    <rect x="792.9" y="104.0" width="4.2" height="26.0" rx="2.1" transform="rotate(295.7 795 148)"/>
    <rect x="792.9" y="104.0" width="4.2" height="26.0" rx="2.1" transform="rotate(308.6 795 148)"/>
    <rect x="792.9" y="104.0" width="4.2" height="26.0" rx="2.1" transform="rotate(321.4 795 148)"/>
    <rect x="792.9" y="104.0" width="4.2" height="26.0" rx="2.1" transform="rotate(334.3 795 148)"/>
    <rect x="792.9" y="104.0" width="4.2" height="26.0" rx="2.1" transform="rotate(347.1 795 148)"/>
    <circle cx="795" cy="148" r="8"/>
  </g>
  <text x="795" y="252" fill="#9A968D" font-family="ui-sans-serif, -apple-system, sans-serif" font-size="15" letter-spacing="2" text-anchor="middle">CALLS YOU BACK</text>
</svg>
