<svg width="780" height="220" viewBox="0 0 780 220" xmlns="http://www.w3.org/2000/svg"><g transform="translate(20,30) scale(0.3125)"><g fill="#0A0A0B"><rect x="250.0" y="107.8" width="12" height="50.2" rx="6.0" transform="rotate(0.00 256 256)"/><rect x="250.0" y="86.5" width="12" height="71.5" rx="6.0" transform="rotate(12.00 256 256)"/><rect x="250.0" y="76.4" width="12" height="81.6" rx="6.0" transform="rotate(24.00 256 256)"/><rect x="250.0" y="80.1" width="12" height="77.9" rx="6.0" transform="rotate(36.00 256 256)"/><rect x="250.0" y="96.6" width="12" height="61.4" rx="6.0" transform="rotate(48.00 256 256)"/><rect x="250.0" y="121.6" width="12" height="36.4" rx="6.0" transform="rotate(60.00 256 256)"/><rect x="250.0" y="107.8" width="12" height="50.2" rx="6.0" transform="rotate(72.00 256 256)"/><rect x="250.0" y="86.5" width="12" height="71.5" rx="6.0" transform="rotate(84.00 256 256)"/><rect x="250.0" y="76.4" width="12" height="81.6" rx="6.0" transform="rotate(96.00 256 256)"/><rect x="250.0" y="80.1" width="12" height="77.9" rx="6.0" transform="rotate(108.00 256 256)"/><rect x="250.0" y="96.6" width="12" height="61.4" rx="6.0" transform="rotate(120.00 256 256)"/><rect x="250.0" y="121.6" width="12" height="36.4" rx="6.0" transform="rotate(132.00 256 256)"/><rect x="250.0" y="107.8" width="12" height="50.2" rx="6.0" transform="rotate(144.00 256 256)"/><rect x="250.0" y="86.5" width="12" height="71.5" rx="6.0" transform="rotate(156.00 256 256)"/><rect x="250.0" y="76.4" width="12" height="81.6" rx="6.0" transform="rotate(168.00 256 256)"/><rect x="250.0" y="80.1" width="12" height="77.9" rx="6.0" transform="rotate(180.00 256 256)"/><rect x="250.0" y="96.6" width="12" height="61.4" rx="6.0" transform="rotate(192.00 256 256)"/><rect x="250.0" y="121.6" width="12" height="36.4" rx="6.0" transform="rotate(204.00 256 256)"/><rect x="250.0" y="107.8" width="12" height="50.2" rx="6.0" transform="rotate(216.00 256 256)"/><rect x="250.0" y="86.5" width="12" height="71.5" rx="6.0" transform="rotate(228.00 256 256)"/><rect x="250.0" y="76.4" width="12" height="81.6" rx="6.0" transform="rotate(240.00 256 256)"/><rect x="250.0" y="80.1" width="12" height="77.9" rx="6.0" transform="rotate(252.00 256 256)"/><rect x="250.0" y="96.6" width="12" height="61.4" rx="6.0" transform="rotate(264.00 256 256)"/><rect x="250.0" y="121.6" width="12" height="36.4" rx="6.0" transform="rotate(276.00 256 256)"/><rect x="250.0" y="107.8" width="12" height="50.2" rx="6.0" transform="rotate(288.00 256 256)"/><rect x="250.0" y="86.5" width="12" height="71.5" rx="6.0" transform="rotate(300.00 256 256)"/><rect x="250.0" y="76.4" width="12" height="81.6" rx="6.0" transform="rotate(312.00 256 256)"/><rect x="250.0" y="80.1" width="12" height="77.9" rx="6.0" transform="rotate(324.00 256 256)"/><rect x="250.0" y="96.6" width="12" height="61.4" rx="6.0" transform="rotate(336.00 256 256)"/><rect x="250.0" y="121.6" width="12" height="36.4" rx="6.0" transform="rotate(348.00 256 256)"/><circle cx="256" cy="256" r="22"/></g></g><text x="214" y="150" font-family="'Inter','Helvetica Neue',Arial,sans-serif" font-size="118" font-weight="600" letter-spacing="2" fill="#0A0A0B">voxa</text></svg>
